<svg xmlns="http://www.w3.org/2000/svg" width="263" height="106" fill="currentColor" viewBox="0 0 263 106">
  <defs>
    <linearGradient id="a" x1="48.68" x2="56.51" y1="14.01" y2="88.23" gradientUnits="userSpaceOnUse">
      <stop stop-color="#FCF84A"/>
      <stop offset=".32" stop-color="#ABE682"/>
      <stop offset=".79" stop-color="#36CDD2"/>
      <stop offset="1" stop-color="#07C3F2"/>
    </linearGradient>
    <linearGradient id="b" x1="19.97" x2="90.18" y1="15.14" y2="48.45" gradientUnits="userSpaceOnUse">
      <stop stop-color="#3BEA62"/>
      <stop offset="1" stop-color="#087CFA"/>
    </linearGradient>
    <linearGradient id="c" x1="26.38" x2="97.08" y1="87.66" y2="38.18" gradientUnits="userSpaceOnUse">
      <stop stop-color="#009AE5"/>
      <stop offset=".18" stop-color="#0490DD"/>
      <stop offset=".49" stop-color="#1073C6"/>
      <stop offset=".89" stop-color="#2346A1"/>
      <stop offset="1" stop-color="#293896"/>
    </linearGradient>
  </defs>
  <path d="M105.06 76.52l4.29-5.21c3 2.49 6.09 4.07 9.87 4.07 3 0 4.77-1.2 4.77-3.16v-.1c0-1.86-1.14-2.82-6.66-4.25-6.65-1.72-11-3.59-11-10.23v-.1c0-6.07 4.82-10.09 11.56-10.09a19 19 0 0112.28 4.26l-3.78 5.54c-2.93-2-5.81-3.29-8.59-3.29-2.78 0-4.25 1.29-4.25 2.91v.15c0 2.2 1.42 2.91 7.13 4.4 6.7 1.77 10.48 4.2 10.48 10v.09c0 6.65-5 10.38-12.13 10.38a20.84 20.84 0 01-13.97-5.37zM135.6 55.77h7.17v3.68a9.259 9.259 0 017.88-4.16c5.9 0 11.52 4.69 11.52 13.25v.09c0 8.56-5.52 13.25-11.52 13.25a9.667 9.667 0 01-7.88-3.86v11h-7.17V55.77zM155 68.63v-.09c0-4.26-2.83-7.08-6.18-7.08-3.35 0-6.13 2.82-6.13 7.08v.09c0 4.26 2.78 7.08 6.13 7.08s6.18-2.77 6.18-7.08zM164.76 74.02v-.1c0-5.59 4.2-8.17 10.2-8.17a17.773 17.773 0 016.18 1v-.43c0-3-1.84-4.69-5.43-4.69-2.402.002-4.78.475-7 1.39l-1.8-5.55a22.172 22.172 0 019.82-2.05c3.92 0 6.75 1.05 8.55 2.86 1.8 1.81 2.72 4.81 2.72 8.25V81.4h-6.94v-2.77a9.647 9.647 0 01-7.64 3.25c-4.74 0-8.66-2.77-8.66-7.86zm16.48-1.68v-1.27c-1.438-.655-3-.996-4.58-1-3.07 0-5 1.24-5 3.54v.09c0 2 1.61 3.11 3.92 3.11 3.42.05 5.66-1.79 5.66-4.45v-.02zM191.81 68.73v-.1a13.08 13.08 0 0113.26-13.34c4.77 0 7.74 1.63 10.1 4.31l-4.39 4.78a7.355 7.355 0 00-5.78-2.82c-3.58 0-6.13 3.2-6.13 7v.09c0 3.93 2.5 7.08 6.42 7.08 2.4 0 4.06-1 5.8-2.72l4.2 4.3A12.67 12.67 0 01205 82.02a12.996 12.996 0 01-12.268-8.181 12.998 12.998 0 01-.922-5.109zM216.87 68.73v-.1c0-7.31 5.14-13.34 12.51-13.34 8.45 0 12.32 6.65 12.32 13.92 0 .57 0 1.24-.1 1.91H224a5.879 5.879 0 006.18 5 8.233 8.233 0 006.14-2.63l4.1 3.68a12.573 12.573 0 01-10.33 4.85c-7.6 0-13.22-5.45-13.22-13.29zm17.84-2.15c-.42-3.25-2.31-5.45-5.33-5.45s-4.91 2.15-5.48 5.45h10.81z"/>
  <path fill="url(#a)" d="M28.45 90.02a75 75 0 0061.42-43 75 75 0 00-61.42-32c-2.18 0-4.37.097-6.57.29a75 75 0 006.57 74.71z"/>
  <path fill="url(#b)" d="M22 15.32a88.3 88.3 0 0139.42 31.7h28.45a74.76 74.76 0 00-61.35-32c-2.18 0-4.353.1-6.52.3z"/>
  <path fill="url(#c)" d="M61.42 47.02c-3.43 22.67-33 43-33 43 26.89-2.54 50.46-18.64 61.45-43H61.42z"/>
  <path d="M104 38.18l1.53-1.32c1.17 1.76 2.35 2.7 4.32 2.7 2.14 0 3.7-1.54 3.7-4.53V22.37h2.16v12.65a6.83 6.83 0 01-1.71 5 5.8 5.8 0 01-4.15 1.56 6.442 6.442 0 01-5.85-3.4zM119.64 34.32c0-4 2.84-7.26 6.7-7.26 4.13 0 6.5 3.29 6.5 7.37v.67h-11.09a4.881 4.881 0 004.91 4.73 5.795 5.795 0 004.4-2l1.3 1.16a7.237 7.237 0 01-5.75 2.62 6.998 6.998 0 01-6.97-7.29zm11.1-.81c-.22-2.53-1.68-4.75-4.46-4.75-2.43 0-4.26 2-4.53 4.75h8.99zM136.75 37.56v-8.42h-1.95v-1.83h1.95V23.1h2.07v4.21h4.43v1.83h-4.43v8.15a2.066 2.066 0 00.598 1.745 2.07 2.07 0 001.752.575c.695 0 1.381-.164 2-.48v1.78a5.2 5.2 0 01-2.51.59c-2.21 0-3.91-1.1-3.91-3.94zM146.71 22.37h8a7 7 0 014.98 1.65c.39.395.698.864.905 1.379.208.515.312 1.066.305 1.621v.06a4.57 4.57 0 01-3 4.37c2.24.67 4.05 2 4.05 4.56v.06c0 3.24-2.73 5.15-6.86 5.15h-8.39l.01-18.85zm12 5c0-1.86-1.48-3.08-4.18-3.08h-5.75v6.51h5.59c2.56 0 4.34-1.16 4.34-3.38v-.05zm-4 5.32h-6v6.67h6.34c2.87 0 4.65-1.27 4.65-3.38v-.06c.1-2.05-1.63-3.24-4.92-3.24l-.07.01zM165.94 27.31H168v3.64a6 6 0 015.7-3.89v2.24h-.17c-3.05 0-5.53 2.19-5.53 6.4v5.56h-2.08l.02-13.95zM175.42 37.21c0-2.94 2.43-4.51 6-4.51a14.85 14.85 0 014.29.59v-.48c0-2.51-1.53-3.81-4.15-3.81a9.652 9.652 0 00-4.24 1l-.62-1.7a11.553 11.553 0 015.07-1.16 6.101 6.101 0 014.51 1.54 5.47 5.47 0 011.43 4.07v8.53h-2v-2.1a6.127 6.127 0 01-5 2.4c-2.71-.02-5.29-1.51-5.29-4.37zm10.28-1.08v-1.35a14.781 14.781 0 00-4.1-.59c-2.62 0-4.08 1.13-4.08 2.89 0 1.76 1.62 2.78 3.51 2.78 2.57.05 4.67-1.51 4.67-3.73zM191.91 21.96h2.37v2.3h-2.37v-2.3zm.13 5.35h2.08v14H192l.04-14zM198.65 27.31h2.08v2.43a5.283 5.283 0 014.78-2.72c3.37 0 5.34 2.27 5.34 5.59v8.66h-2.07v-8.16c0-2.59-1.41-4.21-3.87-4.21a4.098 4.098 0 00-4.18 4.37v8h-2.08V27.31zM213.91 39.48l1.09-1.46a8.16 8.16 0 004.83 1.78c1.67 0 2.89-.87 2.89-2.22 0-1.4-1.65-1.94-3.48-2.46-2.19-.62-4.62-1.37-4.62-3.94v-.16c0-2.4 2-4 4.75-4a9.582 9.582 0 015 1.54l-.94 1.57a7.871 7.871 0 00-4.13-1.35c-1.65 0-2.7.86-2.7 2v.06c0 1.32 1.73 1.83 3.59 2.4 2.16.65 4.48 1.48 4.48 4v.06c0 2.64-2.19 4.18-5 4.18a9.55 9.55 0 01-5.76-2z"/>
</svg>
